<?xml version="1.0" encoding="UTF-8"?>
<!DOCTYPE svg PUBLIC "-//W3C//DTD SVG 1.1//EN" "http://www.w3.org/Graphics/SVG/1.1/DTD/svg11.dtd">
<svg xmlns="http://www.w3.org/2000/svg" version="1.1" width="500px" height="500px" style="shape-rendering:geometricPrecision; text-rendering:geometricPrecision; image-rendering:optimizeQuality; fill-rule:evenodd; clip-rule:evenodd" xmlns:xlink="http://www.w3.org/1999/xlink">
<g><path style="opacity:0" fill="#fffefe" d="M -0.5,-0.5 C 166.167,-0.5 332.833,-0.5 499.5,-0.5C 499.5,166.167 499.5,332.833 499.5,499.5C 332.833,499.5 166.167,499.5 -0.5,499.5C -0.5,332.833 -0.5,166.167 -0.5,-0.5 Z"/></g>
<g><path style="opacity:0" fill="#ffefd9" d="M 292.5,47.5 C 249.154,46.8387 206.154,47.5053 163.5,49.5C 162.596,48.791 162.263,47.791 162.5,46.5C 206.003,46.168 249.337,46.5013 292.5,47.5 Z"/></g>
<g><path style="opacity:1" fill="#ffbd5b" d="M 292.5,47.5 C 292.5,49.5 292.5,51.5 292.5,53.5C 292.5,59.5 292.5,65.5 292.5,71.5C 291.167,71.5 290.5,70.8333 290.5,69.5C 290.34,67.847 289.674,66.5137 288.5,65.5C 287.04,63.5372 285.373,61.7038 283.5,60C 277.07,56.802 270.403,54.302 263.5,52.5C 240.939,49.76 218.272,48.76 195.5,49.5C 195.5,50.8333 195.5,52.1667 195.5,53.5C 195.5,55.5 195.5,57.5 195.5,59.5C 195.333,81.8358 195.5,104.169 196,126.5C 197.397,124.93 198.897,123.596 200.5,122.5C 203.018,121.736 205.351,120.736 207.5,119.5C 212.448,118.441 217.448,118.274 222.5,119C 232.263,122.048 241.929,125.381 251.5,129C 257.755,130.127 263.755,129.46 269.5,127C 271.79,124.921 273.457,122.421 274.5,119.5C 275.073,125.751 272.74,130.751 267.5,134.5C 265.112,136.361 262.446,137.694 259.5,138.5C 246.718,140.797 235.052,138.13 224.5,130.5C 220.993,128.246 217.327,126.246 213.5,124.5C 212.5,124.5 211.5,124.5 210.5,124.5C 207.117,123.121 203.784,123.454 200.5,125.5C 198.871,126.625 197.371,127.959 196,129.5C 195.5,161.832 195.333,194.165 195.5,226.5C 197.167,226.5 198.833,226.5 200.5,226.5C 202.5,226.5 204.5,226.5 206.5,226.5C 226.488,227.763 246.154,225.929 265.5,221C 275.235,219.059 283.068,214.225 289,206.5C 289.771,203.81 290.604,201.144 291.5,198.5C 292.495,203.792 292.828,209.125 292.5,214.5C 292.5,214.833 292.5,215.167 292.5,215.5C 292.666,219.846 292.499,224.179 292,228.5C 282.562,228.934 277.228,233.934 276,243.5C 274.736,296.819 274.069,350.152 274,403.5C 273.134,410.929 270.967,417.929 267.5,424.5C 264.107,431.644 259.107,437.311 252.5,441.5C 245.005,445.799 237.005,447.132 228.5,445.5C 242.331,444.168 251.164,436.835 255,423.5C 256.89,416.272 258.223,408.938 259,401.5C 259.667,352.5 259.667,303.5 259,254.5C 258.783,249.695 257.949,245.028 256.5,240.5C 256.598,238.447 255.931,236.78 254.5,235.5C 254.5,234.833 254.167,234.5 253.5,234.5C 252.833,232.5 251.5,231.167 249.5,230.5C 247.199,229.94 244.866,229.44 242.5,229C 230.505,228.5 218.505,228.333 206.5,228.5C 204.5,228.5 202.5,228.5 200.5,228.5C 196.167,228.5 191.833,228.5 187.5,228.5C 184.5,228.5 181.5,228.5 178.5,228.5C 173.125,228.828 167.792,228.495 162.5,227.5C 172.202,226.63 177.369,221.297 178,211.5C 178.333,208.167 178.667,204.833 179,201.5C 179.667,157.167 179.667,112.833 179,68.5C 178.584,63.694 177.084,59.3607 174.5,55.5C 174.672,54.5084 174.338,53.8417 173.5,53.5C 170.9,50.5397 167.567,49.2063 163.5,49.5C 206.154,47.5053 249.154,46.8387 292.5,47.5 Z"/></g>
<g><path style="opacity:1" fill="#fffcf9" d="M 263.5,52.5 C 241.006,53.4975 218.339,53.8308 195.5,53.5C 195.5,52.1667 195.5,50.8333 195.5,49.5C 218.272,48.76 240.939,49.76 263.5,52.5 Z"/></g>
<g><path style="opacity:1" fill="#ffdeb3" d="M 173.5,53.5 C 174.338,53.8417 174.672,54.5084 174.5,55.5C 172.396,55.7989 170.396,55.4656 168.5,54.5C 170.045,53.5481 171.712,53.2148 173.5,53.5 Z"/></g>
<g><path style="opacity:1" fill="#ffddb2" d="M 263.5,52.5 C 270.403,54.302 277.07,56.802 283.5,60C 285.373,61.7038 287.04,63.5372 288.5,65.5C 282.341,62.7097 276.008,60.3764 269.5,58.5C 246.6,55.8136 223.6,54.8136 200.5,55.5C 200.5,56.8333 200.5,58.1667 200.5,59.5C 198.833,59.5 197.167,59.5 195.5,59.5C 195.5,57.5 195.5,55.5 195.5,53.5C 218.339,53.8308 241.006,53.4975 263.5,52.5 Z"/></g>
<g><path style="opacity:1" fill="#fffdfb" d="M 269.5,58.5 C 246.673,59.4975 223.673,59.8308 200.5,59.5C 200.5,58.1667 200.5,56.8333 200.5,55.5C 223.6,54.8136 246.6,55.8136 269.5,58.5 Z"/></g>
<g><path style="opacity:1" fill="#ffd298" d="M 195.5,59.5 C 197.167,59.5 198.833,59.5 200.5,59.5C 200.5,80.5 200.5,101.5 200.5,122.5C 198.897,123.596 197.397,124.93 196,126.5C 195.5,104.169 195.333,81.8358 195.5,59.5 Z"/></g>
<g><path style="opacity:1" fill="#ffebd1" d="M 269.5,58.5 C 276.008,60.3764 282.341,62.7097 288.5,65.5C 289.674,66.5137 290.34,67.847 290.5,69.5C 278.898,65.2923 266.898,62.7923 254.5,62C 238.503,61.5001 222.503,61.3334 206.5,61.5C 206.17,81.0072 206.503,100.341 207.5,119.5C 205.351,120.736 203.018,121.736 200.5,122.5C 200.5,101.5 200.5,80.5 200.5,59.5C 223.673,59.8308 246.673,59.4975 269.5,58.5 Z"/></g>
<g><path style="opacity:1" fill="#ffd6a0" d="M 292.5,53.5 C 294.5,53.5 296.5,53.5 298.5,53.5C 298.5,55.5 298.5,57.5 298.5,59.5C 298.746,65.5594 298.413,71.5594 297.5,77.5C 297.212,74.3943 295.545,72.3943 292.5,71.5C 292.5,65.5 292.5,59.5 292.5,53.5 Z"/></g>
<g><path style="opacity:1" fill="#ffebd0" d="M 298.5,59.5 C 300.167,59.5 301.833,59.5 303.5,59.5C 303.831,67.5277 303.498,75.5277 302.5,83.5C 301.667,81.5 300.833,79.5 300,77.5C 299.23,76.4019 298.397,76.4019 297.5,77.5C 298.413,71.5594 298.746,65.5594 298.5,59.5 Z"/></g>
<g><path style="opacity:1" fill="#ffe0b9" d="M 210.5,124.5 C 209.167,124.5 207.833,124.5 206.5,124.5C 206.343,125.873 206.51,127.207 207,128.5C 209.438,127.432 211.605,126.098 213.5,124.5C 217.327,126.246 220.993,128.246 224.5,130.5C 223.833,131.167 223.167,131.833 222.5,132.5C 221.395,131.4 220.062,130.733 218.5,130.5C 214.532,129.234 210.532,129.234 206.5,130.5C 206.44,129.957 206.107,129.624 205.5,129.5C 204.167,130.5 202.833,131.5 201.5,132.5C 200.526,130.257 200.192,127.924 200.5,125.5C 203.784,123.454 207.117,123.121 210.5,124.5 Z"/></g>
<g><path style="opacity:1" fill="#fffdfc" d="M 210.5,124.5 C 211.5,124.5 212.5,124.5 213.5,124.5C 211.605,126.098 209.438,127.432 207,128.5C 206.51,127.207 206.343,125.873 206.5,124.5C 207.833,124.5 209.167,124.5 210.5,124.5 Z"/></g>
<g><path style="opacity:1" fill="#ffd399" d="M 200.5,125.5 C 200.192,127.924 200.526,130.257 201.5,132.5C 202.833,131.5 204.167,130.5 205.5,129.5C 206.107,129.624 206.44,129.957 206.5,130.5C 206.5,130.833 206.5,131.167 206.5,131.5C 204.265,132.228 202.432,133.561 201,135.5C 200.5,165.832 200.333,196.165 200.5,226.5C 198.833,226.5 197.167,226.5 195.5,226.5C 195.333,194.165 195.5,161.832 196,129.5C 197.371,127.959 198.871,126.625 200.5,125.5 Z"/></g>
<g><path style="opacity:1" fill="#ffdeb2" d="M 273.5,140.5 C 272.5,141.167 271.5,141.833 270.5,142.5C 267.86,141.579 265.027,140.912 262,140.5C 260.624,140.316 259.791,139.649 259.5,138.5C 262.446,137.694 265.112,136.361 267.5,134.5C 270.422,135.75 273.089,135.083 275.5,132.5C 277.562,130.597 278.896,128.263 279.5,125.5C 280.578,131.684 278.578,136.684 273.5,140.5 Z"/></g>
<g><path style="opacity:1" fill="#fffcfa" d="M 218.5,130.5 C 214.646,133.021 210.812,135.688 207,138.5C 206.503,136.19 206.337,133.857 206.5,131.5C 206.5,131.167 206.5,130.833 206.5,130.5C 210.532,129.234 214.532,129.234 218.5,130.5 Z"/></g>
<g><path style="opacity:1" fill="#ffd39a" d="M 224.5,130.5 C 235.052,138.13 246.718,140.797 259.5,138.5C 259.791,139.649 260.624,140.316 262,140.5C 265.027,140.912 267.86,141.579 270.5,142.5C 261.283,146.323 251.95,146.489 242.5,143C 235.649,139.742 228.982,136.242 222.5,132.5C 223.167,131.833 223.833,131.167 224.5,130.5 Z"/></g>
<g><path style="opacity:1" fill="#ffebd0" d="M 218.5,130.5 C 220.062,130.733 221.395,131.4 222.5,132.5C 228.982,136.242 235.649,139.742 242.5,143C 251.95,146.489 261.283,146.323 270.5,142.5C 271.5,141.833 272.5,141.167 273.5,140.5C 279.545,140.85 283.545,137.85 285.5,131.5C 285.332,141.867 279.999,148.367 269.5,151C 261.204,152.248 253.204,151.248 245.5,148C 237.748,143.457 229.748,139.457 221.5,136C 215.576,134.876 210.742,136.709 207,141.5C 206.5,169.831 206.333,198.165 206.5,226.5C 204.5,226.5 202.5,226.5 200.5,226.5C 200.333,196.165 200.5,165.832 201,135.5C 202.432,133.561 204.265,132.228 206.5,131.5C 206.337,133.857 206.503,136.19 207,138.5C 210.812,135.688 214.646,133.021 218.5,130.5 Z"/></g>
<g><path style="opacity:1" fill="#ffddb1" d="M 297.5,204.5 C 298.105,214.674 298.105,224.674 297.5,234.5C 297.666,230.486 297.499,226.486 297,222.5C 296.311,223.357 295.478,224.023 294.5,224.5C 293.833,221.358 293.166,218.358 292.5,215.5C 292.5,215.167 292.5,214.833 292.5,214.5C 294.544,211.377 296.211,208.044 297.5,204.5 Z"/></g>
<g><path style="opacity:1" fill="#ffeace" d="M 297.5,204.5 C 298.326,209.316 298.826,214.316 299,219.5C 300.598,216.702 301.765,213.702 302.5,210.5C 303.823,220.659 303.823,230.659 302.5,240.5C 297.41,238.856 292.077,237.856 286.5,237.5C 289.668,234.944 293.334,233.944 297.5,234.5C 298.105,224.674 298.105,214.674 297.5,204.5 Z"/></g>
<g><path style="opacity:1" fill="#ffddb2" d="M 178.5,228.5 C 181.5,228.5 184.5,228.5 187.5,228.5C 186.833,230.5 186.167,232.5 185.5,234.5C 185.167,234.5 184.833,234.5 184.5,234.5C 179.125,234.828 173.792,234.495 168.5,233.5C 171.062,232.359 173.728,231.526 176.5,231C 177.381,230.292 178.047,229.458 178.5,228.5 Z"/></g>
<g><path style="opacity:1" fill="#ffd399" d="M 187.5,228.5 C 191.833,228.5 196.167,228.5 200.5,228.5C 200.5,229.833 200.5,231.167 200.5,232.5C 202.5,232.5 204.5,232.5 206.5,232.5C 206.5,233.167 206.5,233.833 206.5,234.5C 199.5,234.5 192.5,234.5 185.5,234.5C 186.167,232.5 186.833,230.5 187.5,228.5 Z"/></g>
<g><path style="opacity:1" fill="#ffebd0" d="M 200.5,228.5 C 202.5,228.5 204.5,228.5 206.5,228.5C 206.5,229.833 206.5,231.167 206.5,232.5C 204.5,232.5 202.5,232.5 200.5,232.5C 200.5,231.167 200.5,229.833 200.5,228.5 Z"/></g>
<g><path style="opacity:1" fill="#fffefd" d="M 206.5,228.5 C 218.505,228.333 230.505,228.5 242.5,229C 244.866,229.44 247.199,229.94 249.5,230.5C 247.369,231.314 245.036,231.814 242.5,232C 230.505,232.5 218.505,232.667 206.5,232.5C 206.5,231.167 206.5,229.833 206.5,228.5 Z"/></g>
<g><path style="opacity:1" fill="#ffdcb0" d="M 249.5,230.5 C 251.5,231.167 252.833,232.5 253.5,234.5C 237.833,234.5 222.167,234.5 206.5,234.5C 206.5,233.833 206.5,233.167 206.5,232.5C 218.505,232.667 230.505,232.5 242.5,232C 245.036,231.814 247.369,231.314 249.5,230.5 Z"/></g>
<g><path style="opacity:1" fill="#ffebd0" d="M 184.5,234.5 C 184.833,234.5 185.167,234.5 185.5,234.5C 192.5,234.5 199.5,234.5 206.5,234.5C 206.5,235.833 206.5,237.167 206.5,238.5C 220.504,238.667 234.504,238.5 248.5,238C 251.051,237.998 253.051,237.164 254.5,235.5C 255.931,236.78 256.598,238.447 256.5,240.5C 228.825,240.833 201.159,240.5 173.5,239.5C 177.864,239.148 181.531,237.481 184.5,234.5 Z"/></g>
<g><path style="opacity:1" fill="#fffefd" d="M 206.5,234.5 C 222.167,234.5 237.833,234.5 253.5,234.5C 254.167,234.5 254.5,234.833 254.5,235.5C 253.051,237.164 251.051,237.998 248.5,238C 234.504,238.5 220.504,238.667 206.5,238.5C 206.5,237.167 206.5,235.833 206.5,234.5 Z"/></g>
<g><path style="opacity:1" fill="#ffddaf" d="M 286.5,237.5 C 292.077,237.856 297.41,238.856 302.5,240.5C 300.5,240.5 298.5,240.5 296.5,240.5C 292.5,240.5 288.5,240.5 284.5,240.5C 284.932,239.29 285.599,238.29 286.5,237.5 Z"/></g>
<g><path style="opacity:1" fill="#ffd398" d="M 292.5,215.5 C 293.166,218.358 293.833,221.358 294.5,224.5C 295.478,224.023 296.311,223.357 297,222.5C 297.499,226.486 297.666,230.486 297.5,234.5C 293.334,233.944 289.668,234.944 286.5,237.5C 285.599,238.29 284.932,239.29 284.5,240.5C 282.641,243.912 281.474,247.578 281,251.5C 280.667,303.167 280.333,354.833 280,406.5C 278.755,420.317 273.255,431.984 263.5,441.5C 265.271,437.621 266.771,433.621 268,429.5C 268.78,427.613 268.613,425.946 267.5,424.5C 270.967,417.929 273.134,410.929 274,403.5C 274.069,350.152 274.736,296.819 276,243.5C 277.228,233.934 282.562,228.934 292,228.5C 292.499,224.179 292.666,219.846 292.5,215.5 Z"/></g>
<g><path style="opacity:1" fill="#ffebd0" d="M 284.5,240.5 C 288.5,240.5 292.5,240.5 296.5,240.5C 288.878,246.48 285.378,254.48 286,264.5C 285.667,315.5 285.333,366.5 285,417.5C 282.381,431.582 275.547,443.082 264.5,452C 256.998,456.883 248.998,458.216 240.5,456C 249.309,455.734 256.309,452.067 261.5,445C 261.272,444.601 260.938,444.435 260.5,444.5C 261.694,443.728 262.694,442.728 263.5,441.5C 273.255,431.984 278.755,420.317 280,406.5C 280.333,354.833 280.667,303.167 281,251.5C 281.474,247.578 282.641,243.912 284.5,240.5 Z"/></g>
<g><path style="opacity:1" fill="#ffddb1" d="M 267.5,424.5 C 268.613,425.946 268.78,427.613 268,429.5C 266.771,433.621 265.271,437.621 263.5,441.5C 262.694,442.728 261.694,443.728 260.5,444.5C 252.716,450.279 244.049,452.279 234.5,450.5C 241.693,449.495 248.026,446.662 253.5,442C 253.272,441.601 252.938,441.435 252.5,441.5C 259.107,437.311 264.107,431.644 267.5,424.5 Z"/></g>
</svg>
